<svg xmlns="http://www.w3.org/2000/svg" xmlns:xlink="http://www.w3.org/1999/xlink" viewBox="0 0 167.81 352.63">
  <defs>
    <style>
      .\30 6b65613-2e6d-4ca2-800f-9539aa730fb8, .\33 e51337c-cd68-448c-b79a-27f6c5102955, .\39 95a746b-64c7-4e07-9475-fc37b0a73603 {
        fill: none;
      }

      .\30 6b65613-2e6d-4ca2-800f-9539aa730fb8 {
        stroke: #073642;
      }

      .\30 6b65613-2e6d-4ca2-800f-9539aa730fb8, .\39 95a746b-64c7-4e07-9475-fc37b0a73603 {
        stroke-miterlimit: 10;
      }

      .b632de27-81c0-4cab-803d-149abd4c1eb3 {
        fill: #073642;
      }

      .e2bbe077-1e18-40e1-992c-99dd5a7c6358 {
        clip-path: url(#9fa5d66d-5e39-491b-9762-b53512b424de);
      }

      .\39 95a746b-64c7-4e07-9475-fc37b0a73603 {
        stroke: #d33682;
      }
    </style>
    <clipPath id="9fa5d66d-5e39-491b-9762-b53512b424de">
      <rect class="3e51337c-cd68-448c-b79a-27f6c5102955" x="33.23" y="125.1" width="101.36" height="101.36"/>
    </clipPath>
  </defs>
  <title>iPhone5c</title>
  <g id="9c02a81e-6f3f-4839-9fa3-bfa79aa94a4f" data-name="Phone1">
    <rect class="06b65613-2e6d-4ca2-800f-9539aa730fb8" y="2.01" width="167.81" height="348.6" rx="28.18" ry="28.18"/>
    <circle class="06b65613-2e6d-4ca2-800f-9539aa730fb8" cx="83.91" cy="325.24" r="15.69"/>
    <rect class="06b65613-2e6d-4ca2-800f-9539aa730fb8" x="79.35" y="321" width="9.11" height="9.11" rx="2.83" ry="2.83"/>
    <circle class="b632de27-81c0-4cab-803d-149abd4c1eb3" cx="83.91" cy="19.39" r="2.82"/>
    <circle class="b632de27-81c0-4cab-803d-149abd4c1eb3" cx="61.84" cy="32.37" r="1.42"/>
    <line class="06b65613-2e6d-4ca2-800f-9539aa730fb8" x1="70.36" y1="32.37" x2="97.45" y2="32.37"/>
    <rect class="06b65613-2e6d-4ca2-800f-9539aa730fb8" x="11.2" y="47.98" width="145.41" height="258.04"/>
    <g class="e2bbe077-1e18-40e1-992c-99dd5a7c6358">
      <g class="e2bbe077-1e18-40e1-992c-99dd5a7c6358">
        <path class="995a746b-64c7-4e07-9475-fc37b0a73603" d="M73,149.58A21.41,21.41,0,0,0,62.3,168h43.9a21.43,21.43,0,0,0-10.66-18.45,19.23,19.23,0,0,1,19.35-18.14v-5.76a25.11,25.11,0,0,0-25,21.56,22.35,22.35,0,0,0-11.21,0,25.11,25.11,0,0,0-25-21.56v5.76A19.22,19.22,0,0,1,73,149.58"/>
        <path class="995a746b-64c7-4e07-9475-fc37b0a73603" d="M110.21,191.08a63.79,63.79,0,0,0,.87-10.59c0-.26,0-.5,0-.76l16.21-5.37L132.85,155l-5.66-1.57-4.73,16.4-11.73,3.89c-.06-.55-.12-1.1-.19-1.65H58c-.07.53-.13,1.06-.19,1.61l-11.71-3.87-5.52-16L35,155.67l6.46,18.73,16,5.3c0,.26,0,.53,0,.8a63.77,63.77,0,0,0,.88,10.65l-16.72,5.54L37,225l5.81.9,4-24.86,12.72-4.22c4.08,15,13.6,25.46,24.7,25.46S104.9,211.75,109,196.75l12.54,4.15,3.6,24.95,5.82-.81-4.11-28.46ZM96.82,213.63H87.72l-.51-3.06a8.27,8.27,0,0,1-2.79,2.64,7.35,7.35,0,0,1-3.67.91,8.5,8.5,0,0,1-7.2-3.38A14.45,14.45,0,0,1,71,201.79v-.48q0-5.93,2.57-9.57a8.34,8.34,0,0,1,7.23-3.64,7,7,0,0,1,3.38.82,8.26,8.26,0,0,1,2.64,2.33v-9l-3.61-.7v-4.08H93.58v31.39l3.24.7Z"/>
        <path class="995a746b-64c7-4e07-9475-fc37b0a73603" d="M85,194a4.76,4.76,0,0,0-2.54-.66,3.8,3.8,0,0,0-3.61,2.2,12.55,12.55,0,0,0-1.14,5.75v.49a10.29,10.29,0,0,0,1.1,5.18,3.85,3.85,0,0,0,3.6,1.89,5.22,5.22,0,0,0,2.57-.6,4.84,4.84,0,0,0,1.79-1.74V195.88A5.16,5.16,0,0,0,85,194"/>
      </g>
    </g>
  </g>
</svg>
